<?xml version="1.0"?>
<svg xmlns="http://www.w3.org/2000/svg" id="Layer_2" data-name="Layer 2" viewBox="0 0 128 128" width="512" height="512"><path d="M126.25,0H98.417a1.751,1.751,0,0,0-1.75,1.75v8.5A1.75,1.75,0,0,0,98.417,12h2.166V44a8.259,8.259,0,0,1-8.25,8.25H89.585V47a1.751,1.751,0,0,0-1.75-1.75h-8.5A1.751,1.751,0,0,0,77.583,47v5.25H50.417V47a1.751,1.751,0,0,0-1.75-1.75h-8.5A1.751,1.751,0,0,0,38.415,47v5.25H35.667A31.786,31.786,0,0,0,3.917,84v32H1.75A1.75,1.75,0,0,0,0,117.749v8.5A1.751,1.751,0,0,0,1.75,128H29.583a1.751,1.751,0,0,0,1.75-1.75v-8.5a1.75,1.75,0,0,0-1.75-1.75H27.417V84a8.259,8.259,0,0,1,8.25-8.25h2.748V81a1.751,1.751,0,0,0,1.75,1.75h8.5A1.751,1.751,0,0,0,50.417,81V75.75H77.583V81a1.751,1.751,0,0,0,1.75,1.75h8.5A1.751,1.751,0,0,0,89.585,81V75.75h2.748A31.786,31.786,0,0,0,124.083,44V12h2.167a1.75,1.75,0,0,0,1.75-1.75V1.75A1.751,1.751,0,0,0,126.25,0ZM92.333,55.75A11.763,11.763,0,0,0,104.083,44V12h9.5V44a21.274,21.274,0,0,1-21.25,21.25H89.585v-9.5Zm-14.75,0v9.5H50.417v-9.5ZM7.417,84a28.281,28.281,0,0,1,28.25-28.25h2.748v9.5H35.667A18.771,18.771,0,0,0,16.917,84v32h-9.5Zm20.416,40.5H3.5v-5H27.833Zm7.834-52.25A11.763,11.763,0,0,0,23.917,84v32h-3.5V84a15.267,15.267,0,0,1,15.25-15.25h2.748v3.5Zm11.25,7h-5V48.75h5Zm3.5-7v-3.5H77.583v3.5Zm35.668,7h-5V48.75h5ZM120.583,44a28.281,28.281,0,0,1-28.25,28.25H89.585v-3.5h2.748A24.778,24.778,0,0,0,117.083,44V12h3.5ZM124.5,8.5H100.167v-5H124.5Z"/></svg>
